#!OML:ASF F:\VICON\USERDATA\INSTALL\rory3\rory3.ASF
:FULLY-SPECIFIED
:DEGREES
1635
root 1.95828 17.6849 0.107244 4.96697 7.35646 -0.250394
lowerback 15.2769 2.10381 2.82589
upperback 1.92499 3.54531 4.03469
thorax -6.60529 1.70888 1.95699
lowerneck -27.58 -7.8053 -8.73908
upperneck -8.86634 -7.545 7.99629
head 1.99547 -3.13013 3.20733
rclavicle -6.36111e-015 -1.74931e-014
rhumerus 37.7004 -41.8979 -40.3422
rradius 53.0856
rwrist 9.24437
rhand -52.4897 -6.65855
rfingers 7.12502
rthumb -24.9769 -35.046
lclavicle -6.36111e-015 -1.74931e-014
lhumerus -37.8443 -2.15092 71.7185
lradius 57.3661
lwrist -5.09125
lhand -16.6409 21.0624
lfingers 7.12502
lthumb 9.58181 50.8246
rfemur -17.0868 -7.96497 10.4345
rtibia 30.6385
rfoot -15.0453 -6.63765
rtoes 5.82062
lfemur -18.397 -0.0615991 -16.5121
ltibia 31.8791
lfoot -14.4245 2.94135
ltoes -22.4045
1636
root 1.97037 17.6853 0.125592 4.56442 7.83845 -0.380007
lowerback 14.904 2.17876 2.46719
upperback 2.0686 3.56114 4.04637
thorax -6.26881 1.73057 2.18196
lowerneck -27.4562 -8.12737 -9.05226
upperneck -8.88312 -7.88015 8.14643
head 2.01766 -3.28109 3.26876
rclavicle -2.70347e-014 -4.13472e-014
rhumerus 38.6316 -41.9535 -40.0072
rradius 52.7105
rwrist 8.96497
rhand -52.774 -7.50261
rfingers 7.12502
rthumb -25.2492 -35.8519
lclavicle -2.70347e-014 -4.13472e-014
lhumerus -37.6774 -1.9525 71.834
lradius 57.4058
lwrist -5.00566
lhand -16.5202 21.3139
lfingers 7.12502
lthumb 9.69824 51.0706
rfemur -16.3228 -8.13099 10.4998
rtibia 30.3934
rfoot -15.196 -6.86503
rtoes 5.40944
lfemur -17.9465 -0.363369 -16.384
ltibia 31.8115
lfoot -14.4788 2.74537
ltoes -22.3837
1637
root 1.98082 17.6861 0.141494 4.14198 8.31851 -0.50121
lowerback 14.9528 2.14151 2.54144
upperback 2.00062 3.50443 3.68695
thorax -6.33822 1.6957 1.76691
lowerneck -27.4298 -8.40538 -9.11769
upperneck -8.69975 -8.23456 8.52868
head 2.12473 -3.43477 3.35668
rclavicle 4.85035e-014 -1.43125e-014
rhumerus 39.7425 -42.1615 -40.5757
rradius 52.0782
rwrist 8.92367
rhand -53.0764 -7.95783
rfingers 7.12502
rthumb -25.5389 -36.266
lclavicle 4.85035e-014 -1.43125e-014
lhumerus -37.8485 -2.20841 71.4238
lradius 57.7216
lwrist -4.63824
lhand -16.2397 21.4957
lfingers 7.12502
lthumb 9.96895 51.2396
rfemur -15.5284 -8.27004 10.5626
rtibia 30.1489
rfoot -15.374 -7.15258
rtoes 4.75468
lfemur -17.4772 -0.654887 -16.263
ltibia 31.7646
lfoot -14.5612 2.53188
ltoes -22.5383
1638
root 1.9893 17.6934 0.159516 4.01062 8.76157 -0.617674
lowerback 14.3835 2.22991 2.3456
upperback 2.07985 3.54802 3.50792
thorax -5.94026 1.72466 1.69958
lowerneck -26.9081 -8.70237 -9.66295
upperneck -9.17139 -8.49693 9.27532
head 2.00436 -3.52682 3.66533
rclavicle -4.33351e-014 6.36111e-015
rhumerus 41.3403 -42.723 -41.3143
rradius 51.4014
rwrist 9.01091
rhand -53.1475 -7.9901
rfingers 7.12502
rthumb -25.607 -36.2885
lclavicle -4.33351e-014 6.36111e-015
lhumerus -37.6127 -2.23793 71.3355
lradius 57.8138
lwrist -4.58703
lhand -16.1321 21.4174
lfingers 7.12502
lthumb 10.0727 51.1563
rfemur -15.0276 -8.33007 10.6557
rtibia 29.8468
rfoot -15.5529 -7.53888
rtoes 4.30589
lfemur -17.3266 -0.849232 -16.1399
ltibia 31.7653
lfoot -14.6688 2.27832
ltoes -22.4549
1639
root 1.99168 17.7012 0.177463 4.02221 9.1728 -0.754372
lowerback 13.5786 2.30151 2.03755
upperback 2.2259 3.5483 3.38562
thorax -5.35213 1.73677 1.77546
lowerneck -26.6068 -8.95815 -10.2134
upperneck -9.62907 -8.68287 10.0358
head 1.91377 -3.57653 3.98419
rclavicle -1.03368e-014 -1.27222e-014
rhumerus 43.6445 -43.3889 -42.7879
rradius 50.6754
rwrist 9.52498
rhand -53.1158 -7.93626
rfingers 7.12502
rthumb -25.5766 -36.239
lclavicle -1.03368e-014 -1.27222e-014
lhumerus -37.2797 -1.99549 71.233
lradius 57.8636
lwrist -4.6773
lhand -15.9735 21.8131
lfingers 7.12502
lthumb 10.2257 51.5446
rfemur -14.6895 -8.2981 10.8212
rtibia 29.4681
rfoot -15.7243 -7.98797
rtoes 4.11591
lfemur -17.3812 -0.902302 -15.9761
ltibia 31.7978
lfoot -14.7655 1.89974
ltoes -22.3841
1640
root 1.99219 17.7067 0.195422 3.87059 9.57852 -1.01505
lowerback 13.1776 2.29857 1.80767
upperback 2.21481 3.48992 3.26266
thorax -5.14731 1.71361 1.80025
lowerneck -27.3891 -9.13781 -9.90055
upperneck -8.77505 -8.96434 9.79808
head 2.26799 -3.70817 3.79619
rclavicle 2.18663e-014 1.59028e-015
rhumerus 44.9898 -43.4664 -43.4165
rradius 50.1151
rwrist 9.40733
rhand -53.0726 -7.80287
rfingers 7.12502
rthumb -25.5353 -36.1115
lclavicle 2.18663e-014 1.59028e-015
lhumerus -37.3026 -1.60901 70.9637
lradius 57.9886
lwrist -4.83896
lhand -15.508 22.5678
lfingers 7.12502
lthumb 10.6748 52.2767
rfemur -14.1914 -8.1399 11.1233
rtibia 29.0363
rfoot -15.9628 -8.49082
rtoes 4.13824
lfemur -17.282 -1.01485 -15.6496
ltibia 31.8198
lfoot -14.8798 1.51652
ltoes -21.9713
1641
root 1.99694 17.71 0.21451 3.56312 9.87538 -1.32205
lowerback 13.1426 2.34005 1.66888
upperback 2.03539 3.52394 3.12939
thorax -5.31778 1.73072 1.72996
lowerneck -27.8987 -9.29726 -9.45216
upperneck -7.7959 -9.29387 9.30964
head 2.60955 -3.88658 3.50355
rclavicle -1.45113e-014 1.59028e-014
rhumerus 45.2969 -43.1656 -43.0368
rradius 49.7124
rwrist 8.53531
rhand -53.027 -7.0083
rfingers 7.12502
rthumb -25.4917 -35.3232
lclavicle -1.45113e-014 1.59028e-014
lhumerus -37.5918 -1.27533 70.7268
lradius 58.1142
lwrist -5.1031
lhand -15.2279 22.9374
lfingers 7.12502
lthumb 10.9449 52.6321
rfemur -13.5477 -7.96463 11.4361
rtibia 28.6075
rfoot -16.1461 -8.88791
rtoes 3.98308
lfemur -16.9805 -1.11619 -15.2966
ltibia 31.8249
lfoot -15.0193 1.25613
ltoes -21.6205
